<?xml version="1.0" encoding="UTF-8"?>
<svg xmlns="http://www.w3.org/2000/svg" xmlnsXlink="http://www.w3.org/1999/xlink">
  <defs>
    <symbol id="audio2" stroke="currentColor" viewBox="0 0 24 24" width="100" height="100">
      <path
        strokeLinecap="round"
        strokeLinejoin="round"
        strokeWidth="2"
        d="M3.055 11H5a2 2 0 012 2v1a2 2 0 002 2 2 2 0 012 2v2.945M8 3.935V5.5A2.5 2.5 0 0010.5 8h.5a2 2 0 012 2 2 2 0 104 0 2 2 0 012-2h1.064M15 20.488V18a2 2 0 012-2h3.064M21 12a9 9 0 11-18 0 9 9 0 0118 0z"
      ></path>
    </symbol>
    <symbol id="audio" viewBox="0 0 8 8">
      <path d="M3 0v1h4v5H3v1h5V0H3zm1 2v1H0v1h4v1l2-1.5L4 2z"></path>
    </symbol>
    <symbol id="account-logout" viewBox="0 0 8 8">
      <path d="M3 0v1h4v5H3v1h5V0H3zM2 2L0 3.5 2 5V4h4V3H2V2z"></path>
    </symbol>
    <symbol id="svg-bin" viewBox="0 0 64 64">
      <path
        d="M53 9H38V6a3 3 0 00-3-3h-6a3 3 0 00-3 3v3H11a3 3 0 00-3 3v3h48v-3a3 3 0 00-3-3zM11 58a3 3 0 003 3h36a3 3 0 003-3V18H11v40zm30-31a3 3 0 116 0v25a3 3 0 11-6 0V27zm-12 0a3 3 0 116 0v25a3 3 0 11-6 0V27zm-12 0a3 3 0 116 0v25a3 3 0 11-6 0V27z"
      ></path>
    </symbol>
    <symbol id="svg-block" viewBox="0 0 64 64">
      <path
        d="M32 0C14.327 0 0 14.327 0 32s14.327 32 32 32 32-14.327 32-32S49.673 0 32 0zm0 58C17.64 58 6 46.36 6 32c0-6.098 2.115-11.694 5.63-16.128L48.128 52.37C43.693 55.886 38.098 58 32 58zm20.37-9.872L15.873 11.63C20.307 8.115 25.903 6 32 6c14.36 0 26 11.64 26 26 0 6.098-2.113 11.693-5.63 16.128z"
      ></path>
    </symbol>
    <symbol id="svg-book" viewBox="0 0 64 64">
      <path
        d="M10.76 32.73l11 5a3 3 0 102.48-5.46l-11-5a3 3 0 10-2.48 5.46zm0 11l11 5a3 3 0 102.48-5.46l-11-5a3 3 0 10-2.48 5.46zm0-22l11 5a3 3 0 102.48-5.46l-11-5a3 3 0 10-2.48 5.46zM41 49c.443 0 .863-.098 1.24-.27l11-5a3 3 0 10-2.48-5.46l-11 5A3 3 0 0041 49zM61 0c-.406 0-.794.082-1.146.228l-.006.002-.027.01L32 11.754 4.18.24a.118.118 0 01-.03-.01L4.147.228A3 3 0 000 3v46c0 1.257.774 2.333 1.87 2.78l28.943 11.976c.364.157.765.244 1.187.244s.823-.087 1.188-.245l28.94-11.976A2.996 2.996 0 0064 49V3a3 3 0 00-3-3zM29 56.512L6 46.995V7.488l23 9.517v39.507zm29-9.517l-23 9.517V17.005l23-9.517v39.507zM41 38c.443 0 .863-.098 1.24-.27l11-5a3 3 0 10-2.48-5.46l-11 5A3 3 0 0041 38zm0-11c.443 0 .863-.097 1.24-.27l11-5a3 3 0 10-2.48-5.46l-11 5A3 3 0 0041 27z"
      ></path>
    </symbol>
    <symbol id="svg-bug" viewBox="0 0 733.886 1024">
      <path
        d="M243.62 156.53C190.748 213.313 205.34 304 205.34 304s53.968 64 160 64c106.03 0 160.03-64 160.03-64s14.376-89.47-37.374-146.312c32.375-18.03 51.438-44.094 43.562-61.812-8.938-19.97-48.375-21.75-88.25-3.97-14.812 6.595-27.438 14.97-37.25 23.876-12.438-2.25-25.625-3.78-40.72-3.78-14.06 0-26.56 1.343-38.344 3.25-9.656-8.75-22.062-16.876-36.53-23.345-39.876-17.72-79.376-15.938-88.25 3.97-7.75 17.342 10.283 42.685 41.407 60.654zm401.126 413.22c-8.25-1.75-16.125-2.75-23.75-3.5 0-2.125.375-4.125.375-6.312 0-33.594-4.75-65.654-12.437-96.125 16.438 1.406 37.375-2.375 58.562-11.78 39.875-17.78 65-48.374 56.125-68.218-8.875-19.97-48.375-21.75-88.25-3.97-18.625 8.313-33.812 19.47-44 30.907-7.75-18.25-16.5-35.78-26.812-51.72-30.188 25.157-87.312 62.72-167.062 71.063v321.78s-.25 32-32.03 32c-31.75 0-32-32-32-32V430.22c-79.812-8.345-136.97-45.97-167.094-71.063-9.875 15.312-18.375 32-25.938 49.344-10.28-10.624-24.625-20.843-41.97-28.593-39.874-17.72-79.374-15.938-88.25 3.97-8.905 19.905 16.25 50.437 56.126 68.218 19.844 8.846 39.53 12.812 55.47 12.096-7.657 30.405-12.47 62.345-12.47 95.813 0 2.188.375 4.25.438 6.5-6.72.75-13.688 1.75-20.78 3.25-51.97 10.75-91.782 37.625-88.845 59.812 2.938 22.312 47.5 31.5 99.594 20.688 6.78-1.375 13.438-3.125 19.78-5.062 9.157 40.81 23.813 78.685 44.095 111.31-12.03 6.062-24.53 15-36.03 26.625C95.714 815 82.778 853.75 98.714 869.688c15.938 15.937 54.656 3 86.53-28.812 9.345-9.375 16.845-19.25 22.657-29C251.434 854.5 305.965 880 365.465 880c60.343 0 115.78-26.25 159.53-69.938 5.876 10.312 13.75 20.812 23.626 30.688 31.813 31.875 70.626 44.812 86.563 28.875s3-54.625-28.875-86.5c-12.312-12.375-25.688-21.75-38.438-27.938 20.125-32.5 34.625-70.375 43.688-111.062 7.188 2.25 14.688 4.375 22.562 6.062 52.06 10.812 96.625 1.562 99.625-20.688 2.813-22.125-37-49-89-59.75z"
      ></path>
    </symbol>
    <symbol id="svg-sync" viewBox="0 0 56.693 56.693">
      <path
        d="M34.693 18.318v4.43a1.018 1.018 0 001.616.823l9.37-6.804a1.016 1.016 0 000-1.648l-9.37-6.805a1.017 1.017 0 00-1.617.822v4.43H14.07c-5.802 0-10.52 4.72-10.52 10.522v7.928c0 1.312 1.063 2.377 2.375 2.377S8.3 33.328 8.3 32.015v-7.928c0-3.18 2.59-5.77 5.77-5.77h20.623zm15.819 3.392a2.376 2.376 0 00-2.375 2.376v7.928a5.775 5.775 0 01-5.77 5.77h-20.72v-4.433a1.017 1.017 0 00-1.617-.821l-9.37 6.804c-.265.19-.42.498-.42.824s.155.633.42.824l9.37 6.807c.177.128.386.192.597.192a1.019 1.019 0 001.019-1.017v-4.43h20.722c5.8 0 10.52-4.72 10.52-10.52v-7.93a2.376 2.376 0 00-2.376-2.374z"
      ></path>
    </symbol>
  </defs>
</svg>